<?xml version="1.0" encoding="utf-8"?>
<!-- Generator: Adobe Illustrator 17.0.0, SVG Export Plug-In . SVG Version: 6.00 Build 0)  -->
<!DOCTYPE svg PUBLIC "-//W3C//DTD SVG 1.1//EN" "http://www.w3.org/Graphics/SVG/1.1/DTD/svg11.dtd">
<svg version="1.1" id="Capa_1" xmlns="http://www.w3.org/2000/svg" xmlns:xlink="http://www.w3.org/1999/xlink" x="0px" y="0px"
	 width="306.595px" height="311.701px" viewBox="0 0 306.595 311.701" enable-background="new 0 0 306.595 311.701"
	 xml:space="preserve">
<g>
	<path d="M74.807,4.667c9.277-1.907,23.066-4.796,41.358-4.662c18.287,0.141,31.122,3.299,38.493,5.481
		c23.2,6.283,42.177,14.473,56.919,24.57c9.01,6.008,13.514,9.968,13.514,11.875c-0.275,1.094-1.914,0.96-4.914-0.409
		c-24.025-9.828-47.848-13.718-71.457-11.671c-23.616,2.048-41.973,9.354-55.076,21.908c-7.371,7.102-12.151,15.654-14.333,21.656
		c-2.188,6.008-3.276,13.426-3.276,26.255c-0.275,14.742,1.567,27.507,5.528,38.288c3.954,10.787,10.576,21.498,19.86,32.146
		c7.64,8.465,17.263,16.584,28.869,24.364c11.601,7.781,18.491,10.718,20.68,8.805c1.638-1.638,0.544-9.277-3.276-22.932
		l-13.513-50.368c-5.189-20.475-8.331-32.35-9.419-35.626c-0.55-0.819-0.89-1.567-1.023-2.252c-0.141-0.678-0.141-1.228,0-1.638
		c0.134-0.41,0.339-0.614,0.614-0.614c1.906,0,7.371,3.48,16.38,10.442s16.648,13.718,22.932,20.27
		c9.553,10.103,35.217,33.719,76.984,70.842l65.109,58.148c1.906,1.639,0.545,6.757-4.094,15.356
		c-4.646,8.6-9.693,15.215-15.152,19.86c-22.662,19.925-54.604,28.799-95.822,26.617c-26.207-1.369-50.098-7.307-71.66-17.813
		c-21.569-10.512-43.957-27.23-67.157-50.163c-14.198-13.923-25.734-30.916-34.603-50.981c-8.875-20.065-14.268-41.769-16.175-65.11
		c-1.913-23.341-2.047-40.021,5.599-64.047c3.545-11.466,14.671-29.247,27.365-39.35C46.757,13.816,60.334,7.399,74.807,4.667z
		 M224.681,220.47l-22.111-20.475c-12.018-11.19-18.703-16.239-20.066-15.151c-1.094,1.095-1.094,4.914,0,11.466
		c1.088,6.553,2.592,11.466,4.504,14.742c1.363,3.276,8.191,6.827,20.477,10.646c13.371,4.096,20.064,5.055,20.064,2.867
		C227.816,223.746,226.863,222.383,224.681,220.47z"/>
</g>
</svg>
