<?xml version="1.0" encoding="utf-8"?>
<!-- Generator: Adobe Illustrator 17.0.0, SVG Export Plug-In . SVG Version: 6.00 Build 0)  -->
<!DOCTYPE svg PUBLIC "-//W3C//DTD SVG 1.1//EN" "http://www.w3.org/Graphics/SVG/1.1/DTD/svg11.dtd">
<svg version="1.1" id="Capa_1" xmlns="http://www.w3.org/2000/svg" xmlns:xlink="http://www.w3.org/1999/xlink" x="0px" y="0px"
	 width="300.222px" height="262.242px" viewBox="0 0 300.222 262.242" enable-background="new 0 0 300.222 262.242"
	 xml:space="preserve">
<g>
	<path d="M255.731,6.149l44.491,73.79l-22.426,42.682l-14.468,0.724c-3.374,0.243-5.844,0.362-7.415,0.362
		c-1.566,0-3.312-0.119-5.245-0.362c-1.927-0.237-3.193-0.418-3.798-0.542c-0.599-0.119-1.142-0.724-1.628-1.809
		c-0.48-1.086-0.599-1.99-0.361-2.713c0.243-0.724,0.785-2.17,1.627-4.341c0.848-2.17,1.752-4.16,2.713-5.968
		c0.966-1.809,2.413-4.521,4.34-8.139l11.575-22.064l-5.426-10.49c-3.854-6.748-8.438-14.344-13.745-22.788l-7.958-12.298
		l-23.15,1.085c-15.192,0.966-23.268,0.605-24.235-1.085c-0.96-1.685,1.752-7.472,8.139-17.362C205.153,4.945,209.313,0,211.24,0
		c2.17,0.243,10.128,1.328,23.873,3.255L255.731,6.149z"/>
	<path d="M95.388,245.848c-8.723-10.796-13.746-17.062-15.071-18.799c-0.991-1.653,1.11-7.764,6.299-18.33
		c5.197-10.564,8.765-15.867,10.704-15.91c1.947-0.04,6.41,6.7,13.396,20.225l10.977,20.411l14.64,0.499
		c9.971,0.208,18.842,0.232,26.612,0.067l11.787-0.742l12.968-21.275c2.111-3.513,3.693-6.149,4.747-7.908
		c1.057-1.754,2.298-3.553,3.723-5.396c1.428-1.839,2.39-3.048,2.886-3.628c0.497-0.576,1.334-0.939,2.512-1.085
		c1.181-0.141,1.978,0.013,2.388,0.466c0.417,0.455,1.223,1.447,2.418,2.978c1.203,1.533,2.203,2.969,3.009,4.312
		c0.808,1.347,1.976,3.527,3.503,6.545l6.821,12.78l-25.068,41.186l-86.164-0.201L95.388,245.848z"/>
	<path d="M65.108,3.255C78.854,1.328,86.811,0.243,88.981,0c1.927,0,6.087,4.945,12.479,14.83
		c6.387,9.891,9.099,15.678,8.139,17.362c-0.967,1.69-9.043,2.051-24.235,1.085l-23.15-1.085l-7.958,12.298
		c-5.307,8.443-9.891,16.04-13.745,22.788l-5.426,10.49l11.575,22.064c1.927,3.617,3.374,6.33,4.34,8.139
		c0.961,1.809,1.865,3.798,2.713,5.968c0.842,2.17,1.385,3.617,1.627,4.341c0.238,0.723,0.119,1.627-0.361,2.713
		c-0.486,1.085-1.029,1.689-1.628,1.809c-0.604,0.124-1.871,0.305-3.798,0.542c-1.933,0.243-3.679,0.362-5.245,0.362
		c-1.571,0-4.041-0.119-7.415-0.362l-14.468-0.724L0,79.938l44.491-73.79L65.108,3.255z M78.13,66.193
		c0.48-0.961,5.606-1.503,15.373-1.628c9.766-0.119,35.267,0.062,76.502,0.542l50.64,0.362l-1.446,5.426
		c-1.447,4.341-6.393,13.807-14.83,28.395c-8.444,14.593-17.362,29.66-26.768,45.214c-9.404,15.554-14.23,23.455-14.468,23.692
		c-7.958,13.988-12.841,20.979-14.65,20.979c-1.808,0-7.776-8.195-17.905-24.597l-21.341-35.81
		c-4.583-7.472-9.043-15.429-13.383-23.873l-12.66-24.958C79.091,71.98,77.407,67.403,78.13,66.193z"/>
</g>
</svg>
