<?xml version="1.0" encoding="utf-8"?>
<!-- Generator: Adobe Illustrator 17.0.0, SVG Export Plug-In . SVG Version: 6.00 Build 0)  -->
<!DOCTYPE svg PUBLIC "-//W3C//DTD SVG 1.1//EN" "http://www.w3.org/Graphics/SVG/1.1/DTD/svg11.dtd">
<svg version="1.1" id="Capa_1" xmlns="http://www.w3.org/2000/svg" xmlns:xlink="http://www.w3.org/1999/xlink" x="0px" y="0px"
	 width="313.967px" height="228.127px" viewBox="0 0 313.967 228.127" enable-background="new 0 0 313.967 228.127"
	 xml:space="preserve">
<g>
	<path d="M125.153,2.407c51.363-8.438,95.854,5.307,133.472,41.235c9.885,9.647,19.77,20.979,29.66,34.001
		c9.885,13.021,17.119,24.478,21.703,34.362l3.979,8.682l-9.043,15.554c-6.273,10.128-17.486,23.393-33.639,39.788
		c-13.508,13.265-25.563,23.212-36.172,29.842c-10.614,6.629-23.692,12.354-39.246,17.181c-15.554,4.821-33.521,6.206-53.895,4.16
		c-20.38-2.052-38.161-6.935-53.353-14.649c-13.021-6.511-26.71-16.639-41.054-30.384c-14.35-13.745-26.586-28.451-36.714-44.129
		L0,121.411l8.319-16.277c8.195-16.396,17.905-31.226,29.118-44.491c11.213-13.259,22.246-23.811,33.097-31.65
		c10.851-7.833,20.855-13.926,30.022-18.267C109.718,6.386,117.918,3.617,125.153,2.407z M218.113,50.153
		c-10.371-6.268-15.192-7.958-14.469-5.064c0.48,1.447,2.532,3.979,6.149,7.596c5.301,5.55,10.065,12.784,14.287,21.703
		c4.217,8.924,6.929,17.362,8.139,25.32c0.961,7.721-0.243,17.486-3.617,29.299c-2.413,7.958-4.826,13.808-7.234,17.543
		c-2.413,3.741-7.358,9.224-14.83,16.458c-9.647,9.404-17.905,15.435-24.777,18.086c-6.872,2.656-17.182,3.617-30.926,2.894
		c-11.095-0.724-20.137-2.65-27.129-5.787c-6.997-3.132-14.593-8.8-22.788-17.001c-14.231-13.982-21.884-30.684-22.969-50.097
		c-1.085-19.409,4.521-36.952,16.819-52.63c8.195-10.128,9.405-13.864,3.617-11.213c-3.137,1.209-7.839,4.103-14.106,8.681
		c-6.511,4.827-14.831,13.265-24.958,25.32c-10.128,12.061-17.362,22.426-21.703,31.107c-1.933,3.38-2.775,5.787-2.532,7.234
		c0.237,1.446,1.685,3.979,4.341,7.596c15.429,21.223,31.345,37.257,47.746,48.107c16.396,10.852,35.205,17.968,56.427,21.342
		c11.812,1.689,22.844,1.627,33.096-0.181c10.247-1.809,21.76-5.969,34.544-12.479c10.852-5.302,22.121-13.141,33.82-23.512
		c11.693-10.365,21.16-20.854,28.395-31.469l6.511-10.128l-7.958-13.745c-5.063-8.681-13.383-18.866-24.958-30.565
		C235.476,62.875,225.827,54.737,218.113,50.153z M189.537,107.666c0-6.991-1.328-13.079-3.979-18.267
		c-2.656-5.183-5.85-8.981-9.585-11.394c-3.742-2.408-7.597-4.397-11.575-5.968c-3.979-1.565-7.178-2.17-9.586-1.809
		c-2.413,0.362-3.741,0.667-3.978,0.904c0,0.724,1.204,4.103,3.617,10.128c3.854,8.924,3.374,17.424-1.447,25.501
		c-4.826,8.082-11.699,12.117-20.617,12.117c-5.307,0-8.02,1.147-8.138,3.437c-0.125,2.294,2.47,5.487,7.777,9.585
		c16.639,12.541,32.554,11.456,47.746-3.255c4.341-4.098,7.054-7.291,8.139-9.586C188.995,116.771,189.537,112.973,189.537,107.666z
		"/>
</g>
</svg>
