<?xml version="1.0" encoding="utf-8"?>
<!-- Generator: Adobe Illustrator 17.0.0, SVG Export Plug-In . SVG Version: 6.00 Build 0)  -->
<!DOCTYPE svg PUBLIC "-//W3C//DTD SVG 1.1//EN" "http://www.w3.org/Graphics/SVG/1.1/DTD/svg11.dtd">
<svg version="1.1" id="Capa_1" xmlns="http://www.w3.org/2000/svg" xmlns:xlink="http://www.w3.org/1999/xlink" x="0px" y="0px"
	 width="214.704px" height="243.816px" viewBox="0 0 214.704 243.816" enable-background="new 0 0 214.704 243.816"
	 xml:space="preserve">
<path d="M175.768,3.989c7.507-1.287,13.676-2.197,18.503-2.735c4.827-0.533,8.794-0.91,11.906-1.126
	c3.107-0.211,5.31-0.161,6.597,0.161s1.931,0.804,1.931,1.448c0,1.503-0.66,1.663-2.735,2.252c-1.756,0.499-7.456,1.825-16.894,5.47
	c-11.585,4.294-22.043,11.263-31.375,20.917s-14.963,19.308-16.894,28.961c-1.076,4.505-1.021,9.281,0.161,14.319
	c1.177,5.043,3.751,11.157,7.723,18.342c3.967,7.19,7.613,13.304,10.941,18.342c3.323,5.043,8.527,12.71,15.607,23.008
	c1.07,1.72,1.931,2.896,2.574,3.54c12.228,17.809,18.02,34.863,17.376,51.164s-7.723,29.816-21.238,40.546
	c-13.947,10.941-34.165,15.979-60.657,15.124c-26.498-0.859-49.184-7.4-68.059-19.629c-8.799-6.009-17.327-13.409-25.583-22.203
	c-8.261-8.794-14.214-16.944-17.859-24.457c-2.791-5.792-4.455-10.669-4.988-14.641C2.267,158.825,0,150.836,0,138.819
	c0-11.369,2.322-19.252,2.965-23.652c0.644-4.395,2.253-9.704,4.827-15.929c2.786-6.436,6.436-12.816,10.941-19.146
	c4.505-6.325,11.263-13.46,20.273-21.399c9.01-7.935,19.413-15.175,31.213-21.721c11.796-6.542,26.87-12.816,45.212-18.825
	C133.773,12.144,153.886,7.423,175.768,3.989z M91.78,193.524c-7.079-3.002-14.536-4.827-22.364-5.471
	c-7.834-0.644-12.711,0.217-14.642,2.575c-3.218,4.077-2.735,8.959,1.448,14.641c4.183,5.682,10.669,10.67,19.468,14.964
	c8.794,4.289,17.698,6.541,26.708,6.758c6.22,0,10.297-0.538,12.228-1.609c1.931-1.076,2.896-3.54,2.896-7.401
	s-2.469-8.1-7.401-12.711C105.185,200.658,99.07,196.741,91.78,193.524z"/>
</svg>
