<?xml version="1.0" encoding="utf-8"?>
<!-- Generator: Adobe Illustrator 17.0.0, SVG Export Plug-In . SVG Version: 6.00 Build 0)  -->
<!DOCTYPE svg PUBLIC "-//W3C//DTD SVG 1.1//EN" "http://www.w3.org/Graphics/SVG/1.1/DTD/svg11.dtd">
<svg version="1.1" id="Capa_1" xmlns="http://www.w3.org/2000/svg" xmlns:xlink="http://www.w3.org/1999/xlink" x="0px" y="0px"
	 width="273.124px" height="282.982px" viewBox="0 0 273.124 282.982" enable-background="new 0 0 273.124 282.982"
	 xml:space="preserve">
<path d="M272.802,167.592c-0.486-0.48-3.86,1.391-10.128,5.606c-6.273,4.222-14.106,8.625-23.512,13.202
	c-9.404,4.584-17.604,6.873-24.596,6.873c-1.21,0-2.171-0.119-2.894-0.362c-2.414-0.96,1.565-5.544,11.937-13.745
	c8.438-6.511,15.791-14.887,22.064-25.139c6.268-10.247,9.404-18.99,9.404-26.225c0.237-10.608-1.69-18.565-5.787-23.873
	c-3.617-4.821-6.512-3.979-8.682,2.532c-0.967,3.617-3.018,7.116-6.149,10.49c-3.137,3.38-9.404,7.116-18.809,11.213
	c-9.404,4.104-17.335,6.635-23.846,7.596l-10.463,1.085v-26.767c0-44.609-11.483-75.959-34.39-94.045
	C131.275,3.498,122.343-1.69,120.173,0.48c-0.967,0.724,0.473,4.945,4.333,12.66c4.821,9.891,6.083,17.605,3.794,23.15
	c-2.294,5.55-10.797,14.711-25.502,27.49C90.257,74.631,81.033,84.397,75.127,93.079c-5.912,8.681-9.224,17.362-9.947,26.043
	c-0.724,8.924-0.243,15.797,1.447,20.617c0.961,2.414,1.447,4.341,1.447,5.788c0.237,4.583-3.137,3.255-10.128-3.979
	c-6.273-6.511-10.49-13.563-12.66-21.16c-2.17-7.596-2.775-13.864-1.809-18.809c0.961-4.94,2.352-9.885,4.16-14.831
	c1.808-4.939,2.712-7.652,2.712-8.138c0-2.17-2.532-0.842-7.596,3.979c-9.891,9.891-17,19.295-21.341,28.214
	c-6.273,12.541-8.201,26.767-5.787,42.682c2.408,15.916,8.8,30.509,19.171,43.768c3.374,4.584,4.939,7.596,4.702,9.043
	c-0.243,2.656-6.273,0.604-18.086-6.149c-13.745-7.715-20.742-11.45-20.979-11.213c-1.209,0.967,0.119,5.969,3.979,15.011
	c3.854,9.043,8.195,17.063,13.022,24.055c8.918,13.502,20.437,25.015,34.543,34.543c14.107,9.523,27.79,15.13,41.054,16.82
	c0.722,0.09,1.403,0.166,2.064,0.234c0,0,0.004,0.001,0.004,0.001s16.23,3.249,36.274,3.381c15.096,0.1,32.694-2.181,40.154-3.732
	c0.028-0.006,0.05-0.012,0.077-0.018c12.748-2.03,25.378-7.281,37.899-15.784c6.268-4.103,12.841-9.224,19.714-15.372
	c6.872-6.149,9.566-9.533,10.309-11.033c0.536-1.084,5.068-7.271,10.489-17.724c4.31-8.31,10.728-17.961,16.277-30.745
	C271.835,175.792,274.006,168.801,272.802,167.592z M182.193,261.999c-2.294,6.268-12.197,9.589-17.475,12.021
	c0,0-28.156,2.857-36.292,2.875c0,0-27.416-2.083-27.417-2.083c-1.006-0.247-2.558-0.426-3.638-0.772
	c-4.827-1.934-9.467-5.359-13.926-10.18c-4.465-4.827-6.692-9.069-6.692-12.686c0-1.933,1.023-4.478,3.075-7.609
	c2.046-3.137,3.979-6.038,5.787-8.688c1.809-2.656,2.95-5.91,3.437-9.77c0.48-3.854-0.848-7.354-3.979-10.491
	c-0.243-0.237-0.486-0.481-0.723-0.724c-3.38-3.854-3.256-5.788,0.361-5.788c5.302,0.243,10.97,3.617,17,10.128
	c4.578,4.826,7.353,6.816,8.32,5.968c0.96-0.842,1.808-4.397,2.532-10.67c0.48-3.854,0.418-6.929-0.181-9.224
	c-0.605-2.289-2.232-5.121-4.883-8.5c-4.34-5.545-6.392-10.49-6.149-14.831c0.237-4.34,2.769-8.8,7.596-13.383
	c0.48-0.48,0.961-0.961,1.447-1.447c8.918-7.957,16.277-12.298,22.064-13.021c4.341-0.724,4.341,2.413,0,9.404
	c-3.137,5.308-4.402,9.224-3.798,11.756c0.599,2.532,3.555,6.211,8.862,11.032c6.511,5.55,10.247,11.575,11.213,18.086
	c0.237,1.446,0.599,2.774,1.085,3.979c1.685,6.754,3.492,7.358,5.426,1.809c0.961-2.17,5.12-5.002,12.479-8.5
	c7.353-3.493,11.874-4.759,13.563-3.798c0.961,0.485,0.419,2.476-1.627,5.968c-2.052,3.499-3.799,8.082-5.245,13.745
	c-1.447,5.669,0,13.327,4.341,22.969C183.334,248.254,184.482,255.726,182.193,261.999z"/>
</svg>
