<?xml version="1.0" encoding="utf-8"?>
<!-- Generator: Adobe Illustrator 17.0.0, SVG Export Plug-In . SVG Version: 6.00 Build 0)  -->
<!DOCTYPE svg PUBLIC "-//W3C//DTD SVG 1.1//EN" "http://www.w3.org/Graphics/SVG/1.1/DTD/svg11.dtd">
<svg version="1.1" id="Layer1" xmlns="http://www.w3.org/2000/svg" xmlns:xlink="http://www.w3.org/1999/xlink" x="0px" y="0px"
	 width="756.01px" height="511.77px" viewBox="0 0 756.01 511.77" enable-background="new 0 0 756.01 511.77" xml:space="preserve">
<path id="Object1" d="M378,0C169.23,0,0,114.57,0,255.89s169.23,255.88,378,255.88c208.76,0,378.01-114.56,378.01-255.88
	S586.76,0,378,0z M680.99,315.74c2.95-10.3,4.49-20.88,4.49-31.69c0-101.04-134.59-182.95-300.61-182.95
	c0,0-175.67,1.55-130.9,103.93c22.05,50.43,84.77,60.76,116.85,65.98c32.59,5.31,86.91,15.62,112.66,57.76
	c25.76,42.14-1.74,92.64-23.27,109.1c-4.12,3.15-8.7,6.21-13.62,9.1c-22.26,3.05-45.4,4.65-69.14,4.65
	c-176.46,0-319.51-88.57-319.51-197.83c0-109.25,143.05-197.81,319.51-197.81c176.48,0,319.52,88.56,319.52,197.81
	C696.97,275.43,691.36,296.25,680.99,315.74z"/>
</svg>
