<?xml version="1.0" encoding="utf-8"?>
<!-- Generator: Adobe Illustrator 17.0.0, SVG Export Plug-In . SVG Version: 6.00 Build 0)  -->
<!DOCTYPE svg PUBLIC "-//W3C//DTD SVG 1.1//EN" "http://www.w3.org/Graphics/SVG/1.1/DTD/svg11.dtd">
<svg version="1.1"
	 id="svg2" xmlns:cc="http://creativecommons.org/ns#" xmlns:dc="http://purl.org/dc/elements/1.1/" xmlns:svg="http://www.w3.org/2000/svg" xmlns:sodipodi="http://sodipodi.sourceforge.net/DTD/sodipodi-0.dtd" xmlns:inkscape="http://www.inkscape.org/namespaces/inkscape" xmlns:rdf="http://www.w3.org/1999/02/22-rdf-syntax-ns#" sodipodi:docname="New document 1" inkscape:version="0.48.4 r9939"
	 xmlns="http://www.w3.org/2000/svg" xmlns:xlink="http://www.w3.org/1999/xlink" x="0px" y="0px" width="763.966px"
	 height="519.681px" viewBox="0 0 763.966 519.681" enable-background="new 0 0 763.966 519.681" xml:space="preserve">
<g id="g2986" transform="translate(289.09436,379.74083)">
	<path id="path3000" inkscape:connector-curvature="0" d="M92.915,139.94c-210.632,0-382.01-116.571-382.01-259.852
		c0-143.259,171.378-259.829,382.01-259.829s381.957,116.57,381.957,259.828C474.872,23.369,303.548,139.94,92.915,139.94
		L92.915,139.94z M92.915-319.011c-174.14,0-321.279,91.169-321.279,199.099c0,107.945,147.139,199.121,321.279,199.121
		c177.133,0,321.279-89.316,321.279-199.121C414.187-227.842,267.033-319.011,92.915-319.011L92.915-319.011z"/>
	<path id="path3002" inkscape:connector-curvature="0" d="M92.915,10.909c-140.044,0-245.67-56.238-245.67-130.829
		s105.626-130.829,245.67-130.829c140.067,0,245.67,56.238,245.67,130.829S232.982,10.909,92.915,10.909z M92.915-200.144
		c-111.657,0-195.073,42.347-195.073,80.224s83.416,80.224,195.073,80.224s195.073-42.347,195.073-80.224
		S204.565-200.144,92.915-200.144L92.915-200.144z"/>
	
		<ellipse id="ellipse3010" sodipodi:cx="108.051" sodipodi:ry="3.3929999" sodipodi:cy="72.844002" sodipodi:rx="11.262" cx="92.915" cy="-119.92" rx="86.194" ry="29.825">
	</ellipse>
</g>
</svg>
