<?xml version="1.0" encoding="utf-8"?>
<!-- Generator: Adobe Illustrator 17.0.0, SVG Export Plug-In . SVG Version: 6.00 Build 0)  -->
<!DOCTYPE svg PUBLIC "-//W3C//DTD SVG 1.1//EN" "http://www.w3.org/Graphics/SVG/1.1/DTD/svg11.dtd">
<svg version="1.1" id="Layer1" xmlns="http://www.w3.org/2000/svg" xmlns:xlink="http://www.w3.org/1999/xlink" x="0px" y="0px"
	 width="328.278px" height="328.011px" viewBox="-34.888 -0.946 328.278 328.011"
	 enable-background="new -34.888 -0.946 328.278 328.011" xml:space="preserve">
<g id="Object1">
	<path fill="none" d="M91.774,150.129c-8.456,25.951,7.581,51.319,34.261,54.235c28.721,3.207,51.319-24.785,42.571-52.631
		c-3.207-9.768-11.518-19.682-20.265-23.91c-8.456-4.228-22.889-5.103-32.074-2.187C106.644,128.698,94.981,140.361,91.774,150.129z
		"/>
	<path fill="none" d="M29.666,241.249c39.51,52.339,110.364,66.19,167.515,32.803c6.852-4.082,14.142-9.768,26.243-20.994
		c5.54-5.103,17.058-22.015,22.015-32.074c6.269-13.121,10.934-29.45,12.101-41.988l0.726-8.998h-20.238
		c-19.944,0-36.262,0.494-36.426,1.154c-4.78,49.118-56.865,78.787-101.038,57.524c-6.758-3.297-14.999-9.065-19.614-13.681
		c-8.736-8.736-18.461-27.031-19.944-37.58c-0.494-3.626-0.824-6.758-0.989-7.088c0-0.165-16.318-0.33-36.262-0.33H4.593
		l0.726,8.998C7.214,199.261,16.982,224.483,29.666,241.249z"/>
	<path d="M289.947,127.144c-7.252-30.658-21.592-56.865-42.855-78.457c-23.735-23.9-51.261-39.393-82.083-46.151
		c-12.555-3.338-47.964-4.285-57.194-2.802C38.424,10.613-13.991,57.917-30.803,124.672c-4.285,16.647-5.439,49.283-2.308,66.754
		c11.703,66.589,62.963,119.498,129.388,133.509c13.845,2.802,46.944,2.52,60.985,0.989c2.308-0.494,6.428-1.319,9.065-1.978
		c8.571-1.648,24.394-7.417,35.932-13.186c35.437-17.636,64.117-48.129,78.951-83.896c6.263-15.494,6.758-16.977,10.384-36.262
		C294.562,175.273,293.738,142.967,289.947,127.144z M148.341,127.823c8.748,4.228,17.058,14.142,20.265,23.91
		c8.748,27.846-13.85,55.838-42.571,52.631c-26.68-2.916-42.717-28.284-34.261-54.235c3.207-9.768,14.871-21.431,24.493-24.493
		C125.451,122.721,139.885,123.595,148.341,127.823z M23.754,169.999c19.944,0,36.262,0.165,36.262,0.33
		c0.165,0.33,0.494,3.461,0.989,7.088c1.483,10.549,11.208,28.844,19.944,37.58c4.615,4.615,12.856,10.384,19.614,13.681
		c44.173,21.262,96.258-8.406,101.038-57.524c0.165-0.659,16.482-1.154,36.426-1.154h20.238l-0.726,8.998
		c-1.166,12.538-5.832,28.867-12.101,41.988c-4.957,10.06-16.475,26.971-22.015,32.074c-12.101,11.226-19.39,16.912-26.243,20.994
		c-57.15,33.386-128.005,19.536-167.515-32.803c-12.684-16.766-22.452-41.988-24.347-62.253l-0.726-8.998H23.754z"/>
</g>
</svg>
