<?xml version="1.0" encoding="utf-8"?>
<!-- Generator: Adobe Illustrator 17.0.0, SVG Export Plug-In . SVG Version: 6.00 Build 0)  -->
<!DOCTYPE svg PUBLIC "-//W3C//DTD SVG 1.1//EN" "http://www.w3.org/Graphics/SVG/1.1/DTD/svg11.dtd">
<svg version="1.1" id="Capa_1" xmlns="http://www.w3.org/2000/svg" xmlns:xlink="http://www.w3.org/1999/xlink" x="0px" y="0px"
	 width="282.616px" height="242.623px" viewBox="-0.001 0 282.616 242.623" enable-background="new -0.001 0 282.616 242.623"
	 xml:space="preserve">
<g>
	<path d="M184.522,0.603c1.935-1.935,9.988,0.789,24.153,8.172c14.165,7.389,25.243,14.59,33.233,21.61
		c6.538,5.811,13.801,14.891,21.792,27.24c7.991,12.349,13.075,22.281,15.254,29.783c2.662,8.961,3.871,19.92,3.632,32.87
		c-0.244,12.955-1.816,23.914-4.722,32.869c-6.781,19.614-18.523,37.109-35.23,52.483s-35.475,25.725-56.297,31.054
		c-9.443,2.418-20.99,5.944-42.34,5.939c-19.494-0.004-34.784-3.158-43.739-5.576c-15.742-4.359-31.962-12.412-48.669-24.153
		s-28.454-23.426-35.23-35.049c-7.752-13.557-12.774-28.329-15.072-44.31c-2.304-15.981-1.516-30.747,2.36-44.31
		c4.841-15.737,13.739-30.929,26.695-45.582c12.951-14.647,27.66-25.844,44.129-33.596c15.01-7.264,22.637-9.319,22.882-6.175
		c0,1.453-1.578,4.602-4.722,9.443c-9.443,13.802-12.23,28.818-8.353,45.037c3.87,16.225,13.194,28.937,27.966,38.137
		c7.991,4.846,15.255,7.69,21.792,8.535c6.538,0.852,14.165,1.126,22.882-1.298c10.17-2.905,18.887-8.928,26.151-15.954
		c7.264-7.019,12.469-14.766,15.618-23.245c3.143-8.473,3.995-17.553,2.543-27.241c-1.453-9.681-5.21-18.523-11.26-26.514
		C185.368,4.961,183.552,1.574,184.522,0.603z"/>
</g>
</svg>
