<?xml version="1.0" encoding="utf-8"?>
<!-- Generator: Adobe Illustrator 17.0.0, SVG Export Plug-In . SVG Version: 6.00 Build 0)  -->
<!DOCTYPE svg PUBLIC "-//W3C//DTD SVG 1.1//EN" "http://www.w3.org/Graphics/SVG/1.1/DTD/svg11.dtd">
<svg version="1.1" id="Capa_1" xmlns="http://www.w3.org/2000/svg" xmlns:xlink="http://www.w3.org/1999/xlink" x="0px" y="0px"
	 width="277.256px" height="316.54px" viewBox="0 0 277.256 316.54" enable-background="new 0 0 277.256 316.54"
	 xml:space="preserve">
<path d="M225.196,190.21c9.009,10.237,19.182,19.796,30.507,28.664c11.332,8.875,18.222,14.947,20.679,18.223
	c1.913,2.732,0.685,3.142-3.686,1.229c-3.276-1.362-13.238-4.229-29.893-8.599c-23.2-6.277-40.674-8.868-52.415-7.781
	c-11.735,1.095-20.334,6.283-25.798,15.562c-3.82,6.283-8.049,16.45-12.694,30.507c-4.639,14.058-6.878,25.555-8.6,34.193
	c-2.07,10.389-3.252,14.332-4.48,14.332c-0.083,0-0.164-0.034-0.243-0.088c-0.088,0.054-0.178,0.088-0.262,0.088
	c-1.229,0-2.282-3.943-4.352-14.332c-1.721-8.639-3.961-20.136-8.6-34.193c-4.645-14.057-8.875-24.224-12.694-30.507
	c-5.464-9.278-14.063-14.467-25.798-15.562c-11.741-1.087-29.215,1.504-52.415,7.781c-16.655,4.369-26.617,7.236-29.893,8.599
	c-4.37,1.913-5.599,1.504-3.686-1.229c2.457-3.275,9.348-9.348,20.679-18.223c11.325-8.868,21.499-18.427,30.507-28.664
	c9.009-10.237,14.192-18.082,15.561-23.546c1.088-4.639,1.088-9.419,0-14.332c-0.819-3.276-7.78-11.806-20.884-25.594
	c-13.104-13.782-25.389-25.453-36.855-35.012c-6.008-4.914-8.465-7.505-7.371-7.781c1.363,0,11.6,2.457,30.712,7.371
	c13.373,3.552,24.908,5.804,34.602,6.757c9.687,0.96,17.198,1.094,22.522,0.409c5.323-0.678,9.891-2.591,13.717-5.732
	c3.82-3.136,6.409-5.867,7.779-8.19c1.363-2.316,2.862-5.797,4.5-10.442c0.819-1.638,1.355-2.867,1.63-3.686
	c4.364-10.372,8.238-22.042,11.655-35.012c3.41-12.963,4.761-22.728,6.087-28.87C136.575,2.566,137.194,0,138.288,0
	c0.103,0.013,0.21,0.045,0.312,0.085c0.079-0.03,0.154-0.074,0.24-0.085c1.094,0,1.777,2.566,2.638,6.552
	c1.326,6.142,2.708,15.906,6.119,28.87c3.417,12.969,7.307,24.64,11.671,35.012c0.275,0.819,0.819,2.047,1.638,3.686
	c1.638,4.645,3.142,8.126,4.504,10.442c1.37,2.323,3.961,5.054,7.781,8.19c3.826,3.142,8.395,5.055,13.718,5.732
	c5.324,0.685,12.835,0.551,22.522-0.409c9.693-0.953,21.229-3.205,34.602-6.757c19.112-4.914,29.35-7.371,30.712-7.371
	c1.094,0.275-1.363,2.867-7.371,7.781c-11.466,9.559-23.751,21.229-36.855,35.012c-13.104,13.788-20.065,22.317-20.884,25.594
	c-1.088,4.913-1.088,9.693,0,14.332C211.004,172.128,216.187,179.973,225.196,190.21z"/>
</svg>
