<?xml version="1.0" encoding="utf-8"?>
<!-- Generator: Adobe Illustrator 17.0.0, SVG Export Plug-In . SVG Version: 6.00 Build 0)  -->
<!DOCTYPE svg PUBLIC "-//W3C//DTD SVG 1.1//EN" "http://www.w3.org/Graphics/SVG/1.1/DTD/svg11.dtd">
<svg version="1.1" id="Capa_1" xmlns="http://www.w3.org/2000/svg" xmlns:xlink="http://www.w3.org/1999/xlink" x="0px" y="0px"
	 width="189.946px" height="272.139px" viewBox="0 0 189.946 272.139" enable-background="new 0 0 189.946 272.139"
	 xml:space="preserve">
<g>
	<path d="M96.867,26.767c2.894-3.374,5.663-6.748,8.319-10.128c2.651-3.374,4.578-5.968,5.788-7.777
		c1.204-1.809,2.351-3.437,3.437-4.883c1.085-1.447,1.927-2.47,2.532-3.075C117.542,0.305,118.084,0,118.571,0
		c0.48,0,0.237,1.933-0.724,5.787c-0.966,3.86-2.476,9.105-4.521,15.734c-2.051,6.635-4.284,13.808-6.691,21.522
		c-2.894,8.681-5.307,15.916-7.234,21.703c-1.933,5.787-3.561,11.032-4.883,15.734c-1.328,4.702-2.294,8.381-2.894,11.032
		c-0.605,2.656-0.966,4.827-1.085,6.511c-0.125,1.69,0,2.775,0.361,3.255c0.362,0.486,1.023,0.724,1.99,0.724
		c2.408,0,18.085-4.459,47.022-13.383c31.588-9.642,48.107-14.107,49.555-13.384c0.48,0.243,0.6,1.085,0.361,2.532
		c-0.242,1.69-4.883,10.128-13.926,25.32s-18.69,31.35-28.937,48.469c-10.252,17.125-16.458,28.214-18.628,33.278
		c-2.17,4.34-8.681,15.978-19.533,34.905c-10.851,18.928-20.256,34.78-28.213,47.565c-3.137,5.063-4.583,6.148-4.341,3.255
		c0-4.826,7.958-35.448,23.873-91.875c7.472-26.767,10.366-40.15,8.681-40.15c-0.243,0-3.979,0.904-11.213,2.713
		s-16.944,4.284-29.118,7.415c-12.179,3.137-22.85,6.273-32.011,9.405c-20.256,6.511-31.351,9.766-33.278,9.766
		c-5.307,0-3.979-5.426,3.979-16.277c5.064-6.511,19.951-27.247,44.671-62.214C76.55,54.381,91.561,33.521,96.867,26.767z"/>
</g>
</svg>
