<?xml version="1.0" encoding="utf-8"?>
<!-- Generator: Adobe Illustrator 17.0.0, SVG Export Plug-In . SVG Version: 6.00 Build 0)  -->
<!DOCTYPE svg PUBLIC "-//W3C//DTD SVG 1.1//EN" "http://www.w3.org/Graphics/SVG/1.1/DTD/svg11.dtd">
<svg version="1.1" id="Capa_1" xmlns="http://www.w3.org/2000/svg" xmlns:xlink="http://www.w3.org/1999/xlink" x="0px" y="0px"
	 width="170.698px" height="188.416px" viewBox="0 0 170.698 188.416" enable-background="new 0 0 170.698 188.416"
	 xml:space="preserve">
<path d="M1.985,14.875c1.476-1.737,6.74-2.609,15.788-2.609c8.351,0,13.48,0.873,15.397,2.609c2.435,2.263,3.739,9.484,3.915,21.66
	c0,2.263,0,5.831,0,10.699c0,12.702-0.22,20.576-0.652,23.618c-0.437,3.046-1.525,5.524-3.262,7.438
	c-1.566,1.741-3.262,2.87-5.089,3.393c-1.827,0.521-5.264,0.782-10.308,0.782c-7.657,0-12.355-0.954-14.092-2.87
	c-2.263-2.259-3.482-10.088-3.653-23.487c0-1.913,0-5.044,0-9.395C-0.148,27.23,0.505,16.616,1.985,14.875z M4.986,94.208
	l4.697-4.959h68.895l5.48,4.697c2.434,2.088,3.955,3.915,4.567,5.48c0.607,1.565,0.913,4.611,0.913,9.134
	c0,4.176-0.306,7.136-0.913,8.873c-0.612,1.741-1.958,3.653-4.045,5.741c-1.916,1.916-3.784,3.176-5.61,3.783
	c-1.827,0.612-4.742,0.914-8.742,0.914c-6.263,0-10.745,1.219-13.44,3.653c-2.699,2.438-4.045,6.524-4.045,12.266
	c0,3.131-0.351,5.61-1.044,7.438c-0.697,1.826-2.087,3.873-4.175,6.132c-2.438,2.785-4.567,4.392-6.394,4.828
	c-1.827,0.433-6.83,0.652-15.005,0.652c-7.829,0-12.747-0.22-14.745-0.652c-2.002-0.437-4.134-1.782-6.394-4.045
	c-2.438-2.435-3.829-5.044-4.175-7.829c-0.351-2.78-0.522-10.87-0.522-24.27c0-13.395,0.171-21.439,0.522-24.139
	C1.157,99.211,2.548,96.646,4.986,94.208z M42.304,40.971c0-2.259,0-5.305,0-9.133c-0.351-3.479-0.351-6.565,0-9.264
	c0.347-2.695,0.392-5.089,0.13-7.177c-0.261-2.088-0.13-3.915,0.392-5.48c0.522-1.566,0.824-2.912,0.913-4.045
	c0.086-1.129,0.608-2.042,1.566-2.74c0.954-0.693,1.737-1.26,2.349-1.696c0.608-0.432,1.737-0.738,3.393-0.914
	c1.651-0.171,3.132-0.302,4.437-0.391C56.787,0.045,58.655,0,61.093,0c8.522,0,13.656,0.697,15.396,2.088
	c2.61,2.088,4,8.962,4.176,20.616c0.171,2.609,0.261,8.701,0.261,18.267c0,20.706-0.697,32.71-2.088,36.014
	c-1.394,3.307-4.697,5.048-9.917,5.219c-1.044,0.176-3.307,0.261-6.785,0.261c-8.526,0-13.745-0.868-15.658-2.609
	c-2.609-2.259-4.004-9.741-4.175-22.443C42.304,54.631,42.304,49.151,42.304,40.971z M103.109,96.035l4.697-4.958h27.401
	c0.869,0,2.259,0,4.176,0c4.869,0,8.306,0,10.308,0c1.998,0,4.437,0.22,7.307,0.652c2.871,0.437,4.738,0.742,5.611,0.913
	c0.868,0.176,1.997,0.958,3.392,2.349c1.391,1.395,2.174,2.524,2.35,3.393c0.171,0.873,0.521,2.74,1.043,5.611
	c0.522,2.87,0.783,5.309,0.783,7.307c0,2.002,0,5.35,0,10.047c0,1.917,0,3.393,0,4.437l0.522,26.879l-4.959,5.22
	c-2.438,2.263-4.566,3.653-6.394,4.175c-1.826,0.522-5.831,0.783-12.003,0.783c-6.178,0-10.178,0.261-12.004,0.783
	c-1.827,0.521-3.874,1.998-6.133,4.437c-2.088,2.087-3.393,3.914-3.915,5.479c-0.522,1.566-0.697,3.915-0.522,7.047l0.783,7.828
	H44.914v-8.09c0-3.653,0.216-5.871,0.652-6.654c0.432-0.783,1.782-1.565,4.045-2.349c2.259-0.783,4.607-2.308,7.046-4.566
	c1.912-1.741,3.217-3.438,3.915-5.089c0.693-1.651,1.044-4.131,1.044-7.438c0-11.654,6.002-17.485,18.006-17.485
	c3.653,0,6.349-0.302,8.09-0.913c1.737-0.607,3.653-1.867,5.741-3.784c2.259-2.259,3.653-4.306,4.175-6.132
	c0.522-1.827,0.783-5.782,0.783-11.874c0-5.913,0.216-9.827,0.652-11.743C99.496,100.385,100.845,98.297,103.109,96.035z
	 M89.538,41.493c0-2.259,0-5.39,0-9.395c0.347-3.825,0.347-7.217,0-10.178c-0.351-2.956-0.306-5.521,0.13-7.698
	c0.432-2.173,0.652-4.045,0.652-5.611c0-1.565,0.433-2.871,1.305-3.915c0.868-1.043,1.606-1.867,2.218-2.479
	c0.607-0.607,1.696-1.084,3.262-1.435c1.566-0.347,3.042-0.563,4.437-0.652C102.933,0.045,104.935,0,107.545,0
	c8.176,0,13.048,0.783,14.614,2.349c2.609,2.088,4,9.224,4.175,21.399c0,2.609,0,8.265,0,16.962c0,20.706-0.783,32.796-2.349,36.274
	c-1.395,3.307-4.873,5.048-10.438,5.219c-1.219,0.176-3.221,0.261-6.002,0.261c-7.658,0-12.355-0.782-14.092-2.349
	c-2.438-2.259-3.743-9.827-3.915-22.704C89.538,54.803,89.538,49.498,89.538,41.493z M133.38,15.658
	c0.869-1.39,2.304-2.304,4.306-2.74c1.998-0.432,6.394-0.652,13.178-0.652c6.785,0,11.177,0.22,13.179,0.652
	c1.998,0.436,3.434,1.35,4.307,2.74c1.215,2.263,1.826,13.048,1.826,32.36c0,17.052-0.783,26.969-2.349,29.75
	c-1.395,2.961-5.309,4.526-11.743,4.697c-1.044,0-2.785,0-5.22,0c-8.525,0-13.659-0.868-15.396-2.609
	c-2.438-2.088-3.743-9.044-3.915-20.877c0-2.088,0-5.741,0-10.96C131.553,28.706,132.161,17.921,133.38,15.658z"/>
</svg>
