<?xml version="1.0" encoding="utf-8"?>
<!-- Generator: Adobe Illustrator 17.0.0, SVG Export Plug-In . SVG Version: 6.00 Build 0)  -->
<!DOCTYPE svg PUBLIC "-//W3C//DTD SVG 1.1//EN" "http://www.w3.org/Graphics/SVG/1.1/DTD/svg11.dtd">
<svg version="1.1" id="Capa_2" xmlns="http://www.w3.org/2000/svg" xmlns:xlink="http://www.w3.org/1999/xlink" x="0px" y="0px"
	 width="300.574px" height="283.822px" viewBox="0 0 300.574 283.822" enable-background="new 0 0 300.574 283.822"
	 xml:space="preserve">
<g>
	<path d="M23.064,54.257c6.748-10.128,10.852-15.192,12.298-15.192c2.17,0,2.046,2.294-0.362,6.873c0,0.243-0.125,0.486-0.362,0.723
		c-0.486,0.967-1.509,4.765-3.075,11.394c-1.571,6.635-3.018,15.316-4.34,26.043c-1.328,10.733-1.147,21.16,0.542,31.288
		c2.17,13.745,6.268,24.235,12.298,31.469c6.025,7.234,19.651,17.849,40.874,31.831c20.013,13.021,33.515,24.116,40.512,33.277
		c6.991,9.168,13.022,23.631,18.086,43.406c4.098,16.639,5.183,25.8,3.255,27.49c-0.966,0.96-3.137,1.203-6.511,0.723
		c-3.86-0.723-9.286-2.17-16.277-4.34c-6.997-2.171-16.22-6.093-27.671-11.756c-11.456-5.669-22.426-12.299-32.916-19.895
		s-20.742-17.661-30.746-30.203c-10.009-12.535-17.667-26.162-22.969-40.873c-1.933-5.545-3.199-11.395-3.798-17.543
		C1.299,152.824,0,143.238,0,130.216c0-18.085,2.266-31.469,4.798-40.15C7.33,81.385,13.417,69.449,23.064,54.257z M117.472,52.448
		c6.268-3.131,11.937-9.099,17-17.905c5.064-8.8,8.918-16.757,11.575-23.873C148.698,3.561,150.506,0,151.473,0
		c0.961,0,2.227,3.199,3.798,9.585c1.565,6.392,4.341,13.807,8.319,22.245c3.979,8.444,9.224,14.593,15.734,18.447
		c4.098,2.894,7.834,4.584,11.213,5.064c3.375,0.486,9.886,0.605,19.533,0.362c14.469-0.723,21.702-0.599,21.702,0.362
		c0,0.966-2.413,2.775-7.233,5.426c-5.788,3.38-14.531,10.128-26.225,20.256c-11.699,10.128-18.99,17.244-21.884,21.341
		c-5.307,7.721-9.891,18.809-13.745,33.278c-3.86,14.469-6.573,26.947-8.139,37.438c-1.571,10.489-2.594,15.734-3.074,15.734
		c-0.724,0-1.69-2.77-2.894-8.319c-1.21-5.545-3.137-13.745-5.788-24.597c-2.656-10.852-5.669-20.917-9.043-30.203
		c-3.38-9.28-6.33-15.915-8.862-19.894c-2.532-3.979-7.415-9.342-14.649-16.096C99.623,80.3,90.1,72.342,81.662,66.555
		c-12.298-8.438-15.678-12.417-10.128-11.937c0.96,0,2.289,0.243,3.979,0.723c5.301,1.447,12.598,1.871,21.884,1.266
		C106.677,56.009,113.368,54.619,117.472,52.448z"/>
	<path d="M295.777,90.066c2.532,8.681,4.798,22.064,4.798,40.15c0,13.021-1.299,22.607-1.904,28.757
		c-0.599,6.148-1.865,11.998-3.798,17.543c-5.301,14.711-12.959,28.338-22.969,40.873c-10.004,12.542-20.256,22.607-30.746,30.203
		s-21.46,14.226-32.916,19.895c-11.451,5.663-20.674,9.585-27.671,11.756c-6.991,2.17-12.417,3.617-16.277,4.34
		c-3.374,0.48-5.544,0.237-6.511-0.723c-1.927-1.69-0.842-10.852,3.255-27.49c5.064-19.775,11.095-34.238,18.086-43.406
		c6.997-9.161,20.499-20.256,40.512-33.277c21.222-13.982,34.849-24.597,40.874-31.831c6.03-7.233,10.128-17.724,12.298-31.469
		c1.69-10.128,1.871-20.555,0.542-31.288c-1.323-10.727-2.77-19.408-4.34-26.043c-1.566-6.629-2.589-10.427-3.075-11.394
		c-0.237-0.237-0.362-0.48-0.362-0.723c-2.408-4.578-2.532-6.873-0.362-6.873c1.447,0,5.55,5.064,12.298,15.192
		C287.157,69.449,293.244,81.385,295.777,90.066z"/>
</g>
</svg>
